<svg width="64" height="64" viewBox="0 0 64 64" fill="none" xmlns="http://www.w3.org/2000/svg">
  <!-- WHITE Background Badge Container -->
  <rect x="2" y="2" width="60" height="60" rx="16" fill="#FFFFFF" stroke="#E2E8F0" stroke-width="1.5" />

  <!-- Geometric Camera Aperture Shutter - 6 Minimalist Color Blades -->
  <g>
    <path d="M 29 25 L 47 19 L 49 35 L 36 35 Z" fill="#2563EB" transform="rotate(0 32 32)" />
    <path d="M 29 25 L 47 19 L 49 35 L 36 35 Z" fill="#7C3AED" transform="rotate(60 32 32)" />
    <path d="M 29 25 L 47 19 L 49 35 L 36 35 Z" fill="#EC4899" transform="rotate(120 32 32)" />
    <path d="M 29 25 L 47 19 L 49 35 L 36 35 Z" fill="#EF4444" transform="rotate(180 32 32)" />
    <path d="M 29 25 L 47 19 L 49 35 L 36 35 Z" fill="#F59E0B" transform="rotate(240 32 32)" />
    <path d="M 29 25 L 47 19 L 49 35 L 36 35 Z" fill="#10B981" transform="rotate(300 32 32)" />

    <circle cx="32" cy="32" r="7.5" fill="#FFFFFF" />
    <circle cx="32" cy="32" r="3.8" fill="#0F172A" />
  </g>
</svg>
